General                          : ChattChitto RG - Movies
==========

Complete name                    : The Graves 2010 BRRip.mp4
Format                           : MPEG-4
Format profile                   : Base Media
Codec ID                         : isom
File size                        : 1.57 GiB
Duration                         : 1h 24mn
Overall bit rate                 : 2 656 Kbps
Encoded date                     : UTC 2010-04-03 02:51:19
Tagged date                      : UTC 2010-04-03 02:51:19

Video
==========
ID                               : 1
Format                           : AVC
Format/Info                      : Advanced Video Codec
Format profile                   : High@L3.1
Format settings, CABAC           : Yes
Format settings, ReFrames        : 3 frames
Codec ID                         : avc1
Codec ID/Info                    : Advanced Video Coding
Duration                         : 1h 24mn
Bit rate mode                    : Variable
Bit rate                         : 2 300 Kbps
Maximum bit rate                 : 26.8 Mbps
Width                            : 1 280 pixels
Height                           : 720 pixels
Display aspect ratio             : 16:9
Frame rate mode                  : Constant
Frame rate                       : 25.000 fps
Resolution                       : 8 bits
Colorimetry                      : 4:2:0
Scan type                        : Progressive
Bits/(Pixel*Frame)               : 0.100
Stream size                      : 1.36 GiB (87%)
Writing library                  : x264 core 76 r1271 496d79d
Encoded date                     : UTC 2010-04-03 02:41:08

Audio
==========
ID                               : 2
Format                           : AAC
Format/Info                      : Advanced Audio Codec
Format version                   : Version 4
Format profile                   : LC
Format settings, SBR             : No
Codec ID                         : 40
Duration                         : 1h 23mn
Bit rate mode                    : Variable
Bit rate                         : 352.8 Kbps
Maximum bit rate                 : 405 Kbps
Channel(s)                       : 6 channels
Channel positions                : Front: L C R, Side: L R, LFE
Sampling rate                    : 48.0 KHz
Stream size                      : 214 MiB (13%)
Encoded date                     : UTC 2010-04-03 02:52:02

Subtitles                        : None




----------------------------------------------------
IMDB Link: http://www.imdb.com/title/tt1203517/
----------------------------------------------------


Screen Shots:
============== 
http://bayimg.com/calNbAack 
http://bayimg.com/CAlnAaAck 
http://bayimg.com/BaLnPAAck 
http://bayimg.com/balNOAACK 
http://bayimg.com/BalNNAaCK


Plot:
======
Two inseparable sister's visit to a remote mine town turns into a mind-bending fight for survival against menaces both human and supernatural.



Release Info:
==============
original name .... : The Graves 2010 BRRip.mp4
ripper.............: Recalled2Life (R2L)
encoder............: Recalled2Life (R2L)
video codec........: H264/.MP4                   
video bitrate......: 2300 Kbps                           
audio codec........: AAC-LC	                                        
aspect ratio.......: 16:9 | 1.78:1                              
resolution.........: 1280 x 720                             
genre..............: Adventure | Horror | Thriller         
runtime............: 1h 24mn
language...........: English                              
subtitles..........: None
2ch Audio..........: 2ch Audio for XBox Viewers 



Source:
========
The Graves 2010 Blu-Ray x264 THUGLiNE [6.55 GB]


Notes:
=======
ChattChitto RG Encourages Burning this Film with ConvertXtoDVD.
Enhanced and Filtered for your viewing pleasure ;)